<svg width="392" height="89" viewBox="0 0 392 89" fill="none" xmlns="http://www.w3.org/2000/svg">
<g filter="url(#filter0_d)">
<path d="M102.89 42.7068C104.957 42.7068 106.87 42.9486 108.629 43.4323C110.432 43.8721 111.861 44.4877 112.916 45.2792C114.016 46.0707 114.565 46.9282 114.565 47.8516C114.565 48.3353 114.389 48.775 114.037 49.1708C113.73 49.5665 113.334 49.7644 112.85 49.7644C112.411 49.7644 112.037 49.6764 111.729 49.5005C111.465 49.3247 111.157 49.0608 110.806 48.709C110.234 48.1374 109.684 47.7197 109.157 47.4558C108.497 47.148 107.618 46.9062 106.518 46.7303C105.463 46.5104 104.32 46.4005 103.088 46.4005C100.67 46.4005 98.4493 47.0161 96.4265 48.2473C94.4478 49.4786 92.8867 51.1495 91.7435 53.2602C90.6002 55.3709 90.0285 57.7014 90.0285 60.2518C90.0285 62.8902 90.5782 65.2647 91.6775 67.3753C92.7768 69.486 94.2939 71.157 96.2287 72.3882C98.2074 73.5755 100.45 74.1691 102.956 74.1691C104.539 74.1691 105.793 74.0372 106.716 73.7733C107.683 73.5095 108.629 73.1357 109.552 72.652C109.86 72.4762 110.388 72.0804 111.135 71.4648C111.487 71.157 111.795 70.9371 112.059 70.8052C112.323 70.6293 112.608 70.5414 112.916 70.5414C113.444 70.5414 113.862 70.7173 114.169 71.069C114.477 71.3768 114.631 71.7946 114.631 72.3223C114.631 73.0698 114.103 73.8833 113.048 74.7627C111.993 75.5982 110.542 76.3237 108.695 76.9394C106.848 77.555 104.803 77.8628 102.561 77.8628C99.3507 77.8628 96.4925 77.1152 93.9861 75.6202C91.4796 74.0811 89.5229 71.9705 88.1157 69.2882C86.7526 66.6058 86.071 63.5937 86.071 60.2518C86.071 57.0418 86.7746 54.1177 88.1817 51.4793C89.5888 48.797 91.5676 46.6643 94.118 45.0813C96.6684 43.4983 99.5925 42.7068 102.89 42.7068ZM126.548 75.2244C126.548 75.7961 126.35 76.2798 125.954 76.6755C125.603 77.0273 125.141 77.2032 124.569 77.2032C123.998 77.2032 123.514 77.0273 123.118 76.6755C122.766 76.2798 122.59 75.7961 122.59 75.2244V30.3725C122.59 29.8009 122.766 29.3392 123.118 28.9874C123.514 28.5916 123.998 28.3938 124.569 28.3938C125.141 28.3938 125.603 28.5916 125.954 28.9874C126.35 29.3392 126.548 29.8009 126.548 30.3725V75.2244ZM141.222 75.2244C141.222 75.7961 141.024 76.2798 140.628 76.6755C140.276 77.0273 139.815 77.2032 139.243 77.2032C138.671 77.2032 138.188 77.0273 137.792 76.6755C137.44 76.2798 137.264 75.7961 137.264 75.2244V44.8834C137.264 44.3118 137.44 43.8501 137.792 43.4983C138.188 43.1025 138.671 42.9047 139.243 42.9047C139.815 42.9047 140.276 43.1025 140.628 43.4983C141.024 43.8501 141.222 44.3118 141.222 44.8834V75.2244ZM139.243 38.4854C138.364 38.4854 137.682 38.2876 137.198 37.8918C136.715 37.4521 136.473 36.8365 136.473 36.045V35.3854C136.473 34.5939 136.715 34.0003 137.198 33.6045C137.726 33.1648 138.43 32.9449 139.309 32.9449C141.068 32.9449 141.947 33.7584 141.947 35.3854V36.045C141.947 36.8365 141.705 37.4521 141.222 37.8918C140.782 38.2876 140.122 38.4854 139.243 38.4854ZM166.079 42.7068C168.146 42.7068 170.059 42.9486 171.818 43.4323C173.621 43.8721 175.05 44.4877 176.105 45.2792C177.204 46.0707 177.754 46.9282 177.754 47.8516C177.754 48.3353 177.578 48.775 177.226 49.1708C176.919 49.5665 176.523 49.7644 176.039 49.7644C175.599 49.7644 175.226 49.6764 174.918 49.5005C174.654 49.3247 174.346 49.0608 173.994 48.709C173.423 48.1374 172.873 47.7197 172.345 47.4558C171.686 47.148 170.806 46.9062 169.707 46.7303C168.652 46.5104 167.509 46.4005 166.277 46.4005C163.859 46.4005 161.638 47.0161 159.615 48.2473C157.637 49.4786 156.076 51.1495 154.932 53.2602C153.789 55.3709 153.217 57.7014 153.217 60.2518C153.217 62.8902 153.767 65.2647 154.866 67.3753C155.966 69.486 157.483 71.157 159.418 72.3882C161.396 73.5755 163.639 74.1691 166.145 74.1691C167.728 74.1691 168.982 74.0372 169.905 73.7733C170.872 73.5095 171.818 73.1357 172.741 72.652C173.049 72.4762 173.577 72.0804 174.324 71.4648C174.676 71.157 174.984 70.9371 175.248 70.8052C175.512 70.6293 175.797 70.5414 176.105 70.5414C176.633 70.5414 177.051 70.7173 177.358 71.069C177.666 71.3768 177.82 71.7946 177.82 72.3223C177.82 73.0698 177.292 73.8833 176.237 74.7627C175.182 75.5982 173.731 76.3237 171.884 76.9394C170.037 77.555 167.992 77.8628 165.75 77.8628C162.54 77.8628 159.681 77.1152 157.175 75.6202C154.669 74.0811 152.712 71.9705 151.305 69.2882C149.942 66.6058 149.26 63.5937 149.26 60.2518C149.26 57.0418 149.964 54.1177 151.371 51.4793C152.778 48.797 154.757 46.6643 157.307 45.0813C159.857 43.4983 162.781 42.7068 166.079 42.7068ZM212.097 73.7074C212.493 74.1471 212.691 74.6528 212.691 75.2244C212.691 75.7961 212.449 76.2798 211.965 76.6755C211.525 77.0273 211.108 77.2032 210.712 77.2032C210.14 77.2032 209.656 76.9613 209.261 76.4776L194.684 61.0433L189.737 65.2647V75.2244C189.737 75.7961 189.539 76.2798 189.143 76.6755C188.792 77.0273 188.33 77.2032 187.758 77.2032C187.187 77.2032 186.703 77.0273 186.307 76.6755C185.955 76.2798 185.779 75.7961 185.779 75.2244V30.3725C185.779 29.8009 185.955 29.3392 186.307 28.9874C186.703 28.5916 187.187 28.3938 187.758 28.3938C188.33 28.3938 188.792 28.5916 189.143 28.9874C189.539 29.3392 189.737 29.8009 189.737 30.3725V60.4497L208.799 44.026C209.195 43.5862 209.656 43.3664 210.184 43.3664C210.668 43.3664 211.108 43.5862 211.503 44.026C211.899 44.4217 212.097 44.8614 212.097 45.3451C212.097 45.8728 211.855 46.3785 211.371 46.8622L197.784 58.405L212.097 73.7074ZM224.713 75.2244C224.713 75.7961 224.515 76.2798 224.119 76.6755C223.768 77.0273 223.306 77.2032 222.734 77.2032C222.163 77.2032 221.679 77.0273 221.283 76.6755C220.931 76.2798 220.756 75.7961 220.756 75.2244V30.3725C220.756 29.8009 220.931 29.3392 221.283 28.9874C221.679 28.5916 222.163 28.3938 222.734 28.3938C223.306 28.3938 223.768 28.5916 224.119 28.9874C224.515 29.3392 224.713 29.8009 224.713 30.3725V75.2244ZM262.934 43.4983C263.506 43.4983 263.967 43.6962 264.319 44.0919C264.715 44.4877 264.913 44.9714 264.913 45.543V75.2244C264.913 75.7961 264.715 76.2798 264.319 76.6755C263.967 77.0273 263.506 77.2032 262.934 77.2032C262.362 77.2032 261.879 77.0273 261.483 76.6755C261.131 76.2798 260.955 75.7961 260.955 75.2244V70.8052C259.856 72.784 258.207 74.4549 256.008 75.8181C253.81 77.1812 251.413 77.8628 248.819 77.8628C245.873 77.8628 243.212 77.0933 240.838 75.5542C238.507 74.0152 236.661 71.9045 235.297 69.2222C233.978 66.5399 233.319 63.5278 233.319 60.1859C233.319 56.8439 234 53.8538 235.363 51.2155C236.727 48.5332 238.573 46.4445 240.904 44.9494C243.278 43.4543 245.895 42.7068 248.753 42.7068C251.391 42.7068 253.81 43.3444 256.008 44.6196C258.207 45.8948 259.856 47.5658 260.955 49.6325V45.543C260.955 44.9714 261.131 44.4877 261.483 44.0919C261.879 43.6962 262.362 43.4983 262.934 43.4983ZM249.215 74.1691C251.501 74.1691 253.546 73.5755 255.349 72.3882C257.196 71.157 258.625 69.486 259.636 67.3753C260.691 65.2207 261.219 62.8242 261.219 60.1859C261.219 57.6354 260.691 55.3049 259.636 53.1942C258.625 51.0836 257.196 49.4346 255.349 48.2473C253.546 47.0161 251.501 46.4005 249.215 46.4005C246.928 46.4005 244.861 46.9941 243.015 48.1814C241.212 49.3686 239.783 51.0176 238.727 53.1283C237.716 55.195 237.21 57.5475 237.21 60.1859C237.21 62.8242 237.716 65.2207 238.727 67.3753C239.739 69.486 241.146 71.157 242.949 72.3882C244.795 73.5755 246.884 74.1691 249.215 74.1691ZM299.792 43.6962C300.363 43.6962 300.825 43.8941 301.177 44.2898C301.572 44.6416 301.77 45.1033 301.77 45.6749V64.2753C301.77 68.5846 300.561 71.9045 298.143 74.2351C295.724 76.5216 292.382 77.6649 288.117 77.6649C283.896 77.6649 280.576 76.5216 278.157 74.2351C275.783 71.9045 274.595 68.5846 274.595 64.2753V45.6749C274.595 45.1033 274.771 44.6416 275.123 44.2898C275.519 43.8941 276.002 43.6962 276.574 43.6962C277.146 43.6962 277.607 43.8941 277.959 44.2898C278.355 44.6416 278.553 45.1033 278.553 45.6749V64.2753C278.553 67.4413 279.388 69.8598 281.059 71.5307C282.73 73.1577 285.083 73.9712 288.117 73.9712C291.195 73.9712 293.569 73.1577 295.24 71.5307C296.955 69.8598 297.813 67.4413 297.813 64.2753V45.6749C297.813 45.1033 297.989 44.6416 298.34 44.2898C298.736 43.8941 299.22 43.6962 299.792 43.6962ZM339.521 28.3938C340.093 28.3938 340.554 28.5916 340.906 28.9874C341.302 29.3392 341.5 29.8009 341.5 30.3725V75.2244C341.5 75.7961 341.302 76.2798 340.906 76.6755C340.554 77.0273 340.093 77.2032 339.521 77.2032C338.949 77.2032 338.466 77.0273 338.07 76.6755C337.718 76.2798 337.542 75.7961 337.542 75.2244V70.6073C336.443 72.6301 334.794 74.345 332.595 75.7521C330.441 77.1592 328.044 77.8628 325.406 77.8628C322.504 77.8628 319.865 77.1152 317.491 75.6202C315.16 74.0811 313.313 71.9705 311.95 69.2882C310.587 66.6058 309.905 63.5937 309.905 60.2518C309.905 56.9539 310.587 53.9637 311.95 51.2814C313.313 48.5991 315.16 46.5104 317.491 45.0154C319.865 43.4763 322.482 42.7068 325.34 42.7068C327.934 42.7068 330.331 43.3664 332.529 44.6856C334.728 45.9608 336.399 47.6317 337.542 49.6984V30.3725C337.542 29.8009 337.718 29.3392 338.07 28.9874C338.466 28.5916 338.949 28.3938 339.521 28.3938ZM325.801 74.1691C328.088 74.1691 330.133 73.5755 331.936 72.3882C333.782 71.201 335.212 69.552 336.223 67.4413C337.278 65.2867 337.806 62.8902 337.806 60.2518C337.806 57.6574 337.278 55.3049 336.223 53.1942C335.212 51.0836 333.782 49.4346 331.936 48.2473C330.133 47.0161 328.088 46.4005 325.801 46.4005C323.515 46.4005 321.448 47.0161 319.601 48.2473C317.798 49.4346 316.369 51.0836 315.314 53.1942C314.303 55.3049 313.797 57.6574 313.797 60.2518C313.797 62.8902 314.303 65.2647 315.314 67.3753C316.369 69.486 317.798 71.157 319.601 72.3882C321.448 73.5755 323.515 74.1691 325.801 74.1691ZM382.959 60.3178C382.959 63.6157 382.233 66.6058 380.782 69.2882C379.331 71.9705 377.33 74.0811 374.78 75.6202C372.23 77.1152 369.393 77.8628 366.271 77.8628C363.149 77.8628 360.313 77.1152 357.763 75.6202C355.212 74.0811 353.211 71.9705 351.76 69.2882C350.309 66.6058 349.584 63.6157 349.584 60.3178C349.584 57.0198 350.309 54.0297 351.76 51.3474C353.211 48.6651 355.212 46.5544 357.763 45.0154C360.313 43.4763 363.149 42.7068 366.271 42.7068C369.393 42.7068 372.23 43.4763 374.78 45.0154C377.33 46.5544 379.331 48.6651 380.782 51.3474C382.233 54.0297 382.959 57.0198 382.959 60.3178ZM379.001 60.3178C379.001 57.6794 378.452 55.3049 377.352 53.1942C376.253 51.0836 374.714 49.4346 372.735 48.2473C370.8 47.0161 368.646 46.4005 366.271 46.4005C363.897 46.4005 361.742 47.0161 359.807 48.2473C357.873 49.4346 356.333 51.0836 355.19 53.1942C354.091 55.3049 353.541 57.6794 353.541 60.3178C353.541 62.9121 354.091 65.2647 355.19 67.3753C356.333 69.486 357.873 71.157 359.807 72.3882C361.742 73.5755 363.897 74.1691 366.271 74.1691C368.646 74.1691 370.8 73.5755 372.735 72.3882C374.714 71.201 376.253 69.552 377.352 67.4413C378.452 65.3306 379.001 62.9561 379.001 60.3178Z" fill="#6500FF"/>
</g>
<g filter="url(#filter1_d)">
<path d="M46.5724 20.5759V0H16.3138C14.3016 0 12.6828 1.61884 12.6828 3.63104V38.7311H4.21035C3.54466 38.7311 3 39.2757 3 39.9414V42.3621C3 43.0278 3.54466 43.5725 4.21035 43.5725H25.5276C25.9814 43.5725 26.4051 43.8296 26.6169 44.2381L29.6276 50.2596L38.2211 33.0576C38.6598 32.1649 39.9458 32.1649 40.3846 33.0576L45.6344 43.5725H56.2552C57.5866 43.5725 58.6759 44.6618 58.6759 45.9931C58.6759 47.3245 57.5866 48.4138 56.2552 48.4138H42.6539L39.3104 41.7267L30.7169 58.9287C30.2782 59.8213 28.9922 59.8213 28.5534 58.9287L23.2884 48.4138H12.6828V73.8311C12.6828 75.8433 14.3016 77.4621 16.3138 77.4621H67.1483C69.1605 77.4621 70.7794 75.8433 70.7794 73.8311V24.2069H50.2035C48.2064 24.2069 46.5724 22.573 46.5724 20.5759ZM69.7203 15.8858L54.9087 1.05905C54.2279 0.378233 53.305 0 52.3367 0H51.4138V19.3655H70.7794V18.4426C70.7794 17.4895 70.4011 16.5666 69.7203 15.8858Z" fill="#6E44FF"/>
</g>
<defs>
<filter id="filter0_d" x="83.8304" y="28.3938" width="301.369" height="53.9503" filterUnits="userSpaceOnUse" color-interpolation-filters="sRGB">
<feFlood flood-opacity="0" result="BackgroundImageFix"/>
<feColorMatrix in="SourceAlpha" type="matrix" values="0 0 0 0 0 0 0 0 0 0 0 0 0 0 0 0 0 0 127 0"/>
<feOffset dy="2.24064"/>
<feGaussianBlur stdDeviation="1.12032"/>
<feColorMatrix type="matrix" values="0 0 0 0 0 0 0 0 0 0 0 0 0 0 0 0 0 0 0.25 0"/>
<feBlend mode="normal" in2="BackgroundImageFix" result="effect1_dropShadow"/>
<feBlend mode="normal" in="SourceGraphic" in2="effect1_dropShadow" result="shape"/>
</filter>
<filter id="filter1_d" x="0.75936" y="0" width="72.2606" height="81.9434" filterUnits="userSpaceOnUse" color-interpolation-filters="sRGB">
<feFlood flood-opacity="0" result="BackgroundImageFix"/>
<feColorMatrix in="SourceAlpha" type="matrix" values="0 0 0 0 0 0 0 0 0 0 0 0 0 0 0 0 0 0 127 0"/>
<feOffset dy="2.24064"/>
<feGaussianBlur stdDeviation="1.12032"/>
<feColorMatrix type="matrix" values="0 0 0 0 0 0 0 0 0 0 0 0 0 0 0 0 0 0 0.25 0"/>
<feBlend mode="normal" in2="BackgroundImageFix" result="effect1_dropShadow"/>
<feBlend mode="normal" in="SourceGraphic" in2="effect1_dropShadow" result="shape"/>
</filter>
</defs>
</svg>
