<svg width="360" height="91" viewBox="0 0 360 91" fill="none" xmlns="http://www.w3.org/2000/svg">
<g filter="url(#filter0_d)">
<path d="M152.577 43.6828C152.577 47.2764 151.826 50.5037 150.326 53.3647C148.826 56.2257 146.75 58.4761 144.098 60.1159C141.447 61.7209 138.429 62.5233 135.044 62.5233C131.66 62.5233 128.642 61.7209 125.99 60.1159C123.339 58.4761 121.263 56.2257 119.762 53.3647C118.262 50.5037 117.512 47.2764 117.512 43.6828C117.512 40.0542 118.262 36.8094 119.762 33.9485C121.263 31.0875 123.339 28.8545 125.99 27.2496C128.642 25.6446 131.66 24.8422 135.044 24.8422C138.429 24.8422 141.447 25.6446 144.098 27.2496C146.75 28.8545 148.826 31.0875 150.326 33.9485C151.826 36.8094 152.577 40.0542 152.577 43.6828ZM149.227 43.6828C149.227 40.6473 148.617 37.9434 147.395 35.5708C146.209 33.1634 144.534 31.2968 142.371 29.971C140.243 28.6452 137.801 27.9823 135.044 27.9823C132.288 27.9823 129.828 28.6452 127.665 29.971C125.537 31.2968 123.862 33.1634 122.641 35.5708C121.455 37.9434 120.862 40.6473 120.862 43.6828C120.862 46.7182 121.455 49.4396 122.641 51.847C123.862 54.2195 125.537 56.0687 127.665 57.3945C129.828 58.7203 132.288 59.3833 135.044 59.3833C137.801 59.3833 140.243 58.7203 142.371 57.3945C144.534 56.0687 146.209 54.2195 147.395 51.847C148.617 49.4396 149.227 46.7182 149.227 43.6828ZM171.816 34.6288C175.061 34.6288 177.433 35.5883 178.934 37.5072C180.469 39.3913 181.236 41.9034 181.236 45.0435V60.43C181.236 60.8835 181.079 61.2673 180.765 61.5813C180.451 61.8604 180.085 62 179.666 62C179.213 62 178.829 61.8604 178.515 61.5813C178.236 61.2673 178.096 60.8835 178.096 60.43V45.2005C178.096 42.9326 177.521 41.1009 176.369 39.7053C175.253 38.2748 173.508 37.5596 171.136 37.5596C169.636 37.5596 168.205 37.9085 166.844 38.6063C165.519 39.3041 164.437 40.2461 163.6 41.4324C162.762 42.5837 162.344 43.8398 162.344 45.2005V60.43C162.344 60.8835 162.187 61.2673 161.873 61.5813C161.593 61.8604 161.227 62 160.773 62C160.32 62 159.936 61.8604 159.622 61.5813C159.343 61.2673 159.203 60.8835 159.203 60.43V36.9839C159.203 36.5303 159.343 36.164 159.622 35.8848C159.936 35.5708 160.32 35.4138 160.773 35.4138C161.227 35.4138 161.593 35.5708 161.873 35.8848C162.187 36.164 162.344 36.5303 162.344 36.9839V39.8623C163.286 38.362 164.629 37.1234 166.373 36.1465C168.153 35.1347 169.967 34.6288 171.816 34.6288ZM216.988 59.1739C217.511 59.5228 217.773 59.9589 217.773 60.4823C217.773 60.6567 217.703 60.8835 217.563 61.1626C217.424 61.4069 217.232 61.5988 216.988 61.7383C216.744 61.8779 216.482 61.9477 216.203 61.9477C215.854 61.9477 215.557 61.8779 215.313 61.7383C214.336 61.1801 213.551 60.2729 212.958 59.0169C212.365 57.7609 212.068 55.7547 212.068 52.9984C212.068 50.5561 211.388 48.8465 210.027 47.8696C208.667 46.8577 207.044 46.3518 205.16 46.3518H193.542V60.43C193.542 60.8835 193.402 61.2673 193.123 61.5813C192.844 61.8604 192.478 62 192.024 62C191.536 62 191.117 61.8604 190.768 61.5813C190.419 61.2673 190.245 60.8835 190.245 60.43V26.9356C190.245 26.482 190.384 26.1156 190.663 25.8365C190.977 25.5225 191.361 25.3655 191.815 25.3655H205.945C207.934 25.3655 209.713 25.8016 211.283 26.6739C212.853 27.5112 214.074 28.6801 214.947 30.1803C215.854 31.6806 216.307 33.3728 216.307 35.2568C216.307 37.4898 215.714 39.4611 214.528 41.1707C213.377 42.8454 211.859 43.9968 209.975 44.6248C211.51 45.2179 212.766 46.2297 213.743 47.6602C214.72 49.0558 215.226 50.7654 215.261 52.789C215.296 54.9522 215.435 56.4699 215.679 57.3422C215.959 58.2144 216.395 58.825 216.988 59.1739ZM206.102 43.4734C207.323 43.3687 208.457 42.9675 209.504 42.2697C210.551 41.5719 211.388 40.6299 212.016 39.4436C212.644 38.2574 212.958 36.8967 212.958 35.3615C212.958 33.3728 212.278 31.7329 210.917 30.442C209.591 29.1162 207.847 28.4533 205.683 28.4533H193.542V43.4734H206.102ZM246.873 47.0845C246.873 47.5032 246.716 47.8696 246.402 48.1836C246.088 48.4627 245.722 48.6022 245.303 48.6022H225.52C225.52 50.6956 225.939 52.5797 226.776 54.2544C227.649 55.8943 228.87 57.2026 230.44 58.1795C232.045 59.1216 233.929 59.5926 236.092 59.5926C237.767 59.5926 239.267 59.2437 240.593 58.5459C241.919 57.8481 242.983 56.9584 243.785 55.8768C244.169 55.5628 244.535 55.4058 244.884 55.4058C245.233 55.4058 245.547 55.5454 245.826 55.8245C246.106 56.1036 246.245 56.4176 246.245 56.7665C246.245 57.1503 246.071 57.5166 245.722 57.8655C244.605 59.2262 243.192 60.3427 241.483 61.215C239.808 62.0872 238.029 62.5233 236.144 62.5233C233.458 62.5233 231.085 61.9477 229.027 60.7963C226.968 59.6449 225.363 58.04 224.212 55.9815C223.061 53.8881 222.485 51.4807 222.485 48.7592C222.485 45.8983 223.043 43.4036 224.16 41.2753C225.311 39.1122 226.829 37.4723 228.713 36.3559C230.597 35.2045 232.603 34.6288 234.731 34.6288C236.825 34.6288 238.779 35.1173 240.593 36.0942C242.442 37.0711 243.942 38.5016 245.094 40.3857C246.245 42.2697 246.838 44.5027 246.873 47.0845ZM234.731 37.6642C232.708 37.6642 230.824 38.362 229.079 39.7576C227.37 41.1532 226.271 43.1594 225.782 45.7762H243.628V45.3575C243.454 43.7874 242.931 42.4267 242.058 41.2753C241.186 40.0891 240.087 39.1994 238.761 38.6063C237.47 37.9782 236.127 37.6642 234.731 37.6642ZM266.062 35.0475C268.365 35.0475 270.459 35.6406 272.343 36.8269C274.227 37.9782 275.692 39.6006 276.739 41.694C277.82 43.7525 278.361 46.0727 278.361 48.6546C278.361 51.2713 277.82 53.6264 276.739 55.7198C275.692 57.7783 274.227 59.4007 272.343 60.587C270.493 61.7732 268.418 62.3663 266.115 62.3663C264.091 62.3663 262.225 61.8953 260.515 60.9533C258.84 59.9764 257.497 58.6855 256.485 57.0805V70.8969C256.485 71.3505 256.328 71.7169 256.014 71.996C255.735 72.31 255.369 72.467 254.915 72.467C254.462 72.467 254.078 72.31 253.764 71.996C253.485 71.7169 253.345 71.3505 253.345 70.8969V36.7745C253.345 36.321 253.485 35.9372 253.764 35.6232C254.078 35.3092 254.462 35.1522 254.915 35.1522C255.369 35.1522 255.735 35.3092 256.014 35.6232C256.328 35.9372 256.485 36.321 256.485 36.7745V40.3333C257.392 38.6935 258.701 37.4026 260.41 36.4605C262.12 35.5185 264.004 35.0475 266.062 35.0475ZM265.801 59.4356C267.615 59.4356 269.237 58.982 270.668 58.0749C272.133 57.1328 273.267 55.8419 274.07 54.2021C274.907 52.5623 275.326 50.7131 275.326 48.6546C275.326 46.631 274.907 44.8167 274.07 43.2117C273.267 41.5719 272.133 40.2984 270.668 39.3913C269.237 38.4493 267.615 37.9782 265.801 37.9782C263.952 37.9782 262.294 38.4318 260.829 39.339C259.364 40.2461 258.23 41.5196 257.427 43.1594C256.625 44.7643 256.223 46.5961 256.223 48.6546C256.223 50.7131 256.625 52.5623 257.427 54.2021C258.23 55.8419 259.364 57.1328 260.829 58.0749C262.294 58.982 263.952 59.4356 265.801 59.4356ZM309.53 48.6022C309.53 51.219 308.954 53.5915 307.803 55.7198C306.652 57.8481 305.064 59.5228 303.04 60.744C301.017 61.9302 298.766 62.5233 296.289 62.5233C293.812 62.5233 291.562 61.9302 289.538 60.744C287.514 59.5228 285.927 57.8481 284.775 55.7198C283.624 53.5915 283.048 51.219 283.048 48.6022C283.048 45.9855 283.624 43.613 284.775 41.4847C285.927 39.3564 287.514 37.6817 289.538 36.4605C291.562 35.2394 293.812 34.6288 296.289 34.6288C298.766 34.6288 301.017 35.2394 303.04 36.4605C305.064 37.6817 306.652 39.3564 307.803 41.4847C308.954 43.613 309.53 45.9855 309.53 48.6022ZM306.39 48.6022C306.39 46.5088 305.954 44.6248 305.081 42.9501C304.209 41.2753 302.988 39.967 301.418 39.0249C299.883 38.048 298.173 37.5596 296.289 37.5596C294.405 37.5596 292.696 38.048 291.16 39.0249C289.625 39.967 288.404 41.2753 287.497 42.9501C286.625 44.6248 286.189 46.5088 286.189 48.6022C286.189 50.6608 286.625 52.5274 287.497 54.2021C288.404 55.8768 289.625 57.2026 291.16 58.1795C292.696 59.1216 294.405 59.5926 296.289 59.5926C298.173 59.5926 299.883 59.1216 301.418 58.1795C302.988 57.2375 304.209 55.9291 305.081 54.2544C305.954 52.5797 306.39 50.6956 306.39 48.6022ZM328.461 34.6288C329.159 34.6288 329.787 34.7684 330.345 35.0475C330.903 35.3266 331.182 35.7453 331.182 36.3035C331.182 36.792 331.043 37.1932 330.764 37.5072C330.485 37.7863 330.153 37.9259 329.769 37.9259C329.595 37.9259 329.246 37.8387 328.723 37.6642C328.234 37.4898 327.763 37.4026 327.31 37.4026C326.019 37.4026 324.728 37.9085 323.437 38.9203C322.181 39.8972 321.134 41.1707 320.297 42.7407C319.494 44.3108 319.093 45.8983 319.093 47.5032V60.43C319.093 60.8835 318.936 61.2673 318.622 61.5813C318.343 61.8604 317.976 62 317.523 62C317.069 62 316.686 61.8604 316.372 61.5813C316.092 61.2673 315.953 60.8835 315.953 60.43V36.9839C315.953 36.5303 316.092 36.164 316.372 35.8848C316.686 35.5708 317.069 35.4138 317.523 35.4138C317.976 35.4138 318.343 35.5708 318.622 35.8848C318.936 36.164 319.093 36.5303 319.093 36.9839V41.5894C319.895 39.6006 321.099 37.9608 322.704 36.6699C324.344 35.344 326.263 34.6637 328.461 34.6288ZM341.323 38.2923V55.8245C341.323 57.1503 341.567 58.0574 342.056 58.5459C342.544 58.9995 343.19 59.2262 343.992 59.2262C344.201 59.2262 344.463 59.1914 344.777 59.1216C345.091 59.0169 345.335 58.9646 345.51 58.9646C345.824 58.9646 346.086 59.1041 346.295 59.3833C346.539 59.6275 346.661 59.924 346.661 60.2729C346.661 60.7614 346.382 61.1801 345.824 61.529C345.266 61.843 344.603 62 343.835 62C342.893 62 342.056 61.9128 341.323 61.7383C340.59 61.5639 339.875 61.0405 339.177 60.1683C338.514 59.296 338.183 57.9004 338.183 55.9815V38.2923H334.362C333.944 38.2923 333.577 38.1527 333.263 37.8736C332.984 37.5945 332.845 37.2456 332.845 36.8269C332.845 36.4082 332.984 36.0593 333.263 35.7802C333.577 35.5011 333.944 35.3615 334.362 35.3615H338.183V29.5523C338.183 29.0987 338.322 28.7324 338.602 28.4533C338.916 28.1393 339.299 27.9823 339.753 27.9823C340.207 27.9823 340.573 28.1393 340.852 28.4533C341.166 28.7324 341.323 29.0987 341.323 29.5523V35.3615H346.557C346.94 35.3615 347.272 35.5185 347.551 35.8325C347.865 36.1465 348.022 36.4954 348.022 36.8792C348.022 37.2979 347.882 37.6468 347.603 37.9259C347.324 38.1701 346.975 38.2923 346.557 38.2923H341.323Z" fill="#6E44FF"/>
</g>
<g filter="url(#filter1_d)">
<path d="M98.2503 0H9.3494C6.39584 0.00213984 4.00233 2.39584 4 5.34921V77.6502C4.00233 80.6036 6.39584 82.9973 9.3494 82.9996H98.2505C101.204 82.9973 103.598 80.6038 103.6 77.6502V5.34921C103.597 2.39584 101.204 0.00213984 98.2503 0ZM99.4498 77.6504C99.4498 78.3128 98.9129 78.8497 98.2505 78.8497H9.3494C8.68702 78.8497 8.15012 78.3128 8.15012 77.6504V43.5749H23.0341C23.5651 43.5751 24.0762 43.3716 24.4617 43.0063L30.1264 37.6425L35.0068 50.9556C35.4006 52.0317 36.5923 52.585 37.6684 52.1912C38.3139 51.9551 38.8006 51.4147 38.9679 50.748L45.7074 23.6756L48.8053 70.5954C48.8708 71.5863 49.6295 72.3919 50.6146 72.5168C50.702 72.5279 50.7901 72.5333 50.8782 72.5333C51.7728 72.5329 52.5665 71.9592 52.8474 71.1099L63.2223 39.7774L68.9203 50.9223C69.2814 51.6257 69.9185 52.0179 70.8044 52.0531C71.5959 52.0395 72.3106 51.5767 72.647 50.8601L76.0561 43.5747H83.912C84.8839 44.8771 86.4121 45.6459 88.0371 45.6497C91.6765 45.6497 93.2246 44.0997 93.2246 40.4622C93.2275 37.5971 90.9074 35.2723 88.0423 35.2696C85.5733 35.2671 83.4448 37.0052 82.9534 39.4248H74.7364C73.932 39.4249 73.2004 39.8899 72.8586 40.6178L70.6777 45.2679L64.6603 33.4756C64.139 32.4551 62.8891 32.0503 61.8686 32.5716C61.3825 32.8201 61.0138 33.2498 60.8425 33.7682L52.2436 59.7182L48.9693 10.1487C48.9084 9.00424 47.9314 8.12594 46.787 8.18663C45.8665 8.23546 45.0886 8.88597 44.8773 9.78334L36.5773 43.1763L32.9419 33.2537C32.5472 32.1777 31.3549 31.6256 30.2792 32.0203C30.0146 32.1174 29.7726 32.2674 29.5679 32.461L22.2059 39.4246H8.14992V5.34921C8.14992 4.68683 8.68683 4.14992 9.3492 4.14992H98.2503C98.9127 4.14992 99.4496 4.68683 99.4496 5.34921V77.6504H99.4498Z" fill="#6E44FF"/>
</g>
<defs>
<filter id="filter0_d" x="115.734" y="24.8422" width="234.066" height="51.1805" filterUnits="userSpaceOnUse" color-interpolation-filters="sRGB">
<feFlood flood-opacity="0" result="BackgroundImageFix"/>
<feColorMatrix in="SourceAlpha" type="matrix" values="0 0 0 0 0 0 0 0 0 0 0 0 0 0 0 0 0 0 127 0"/>
<feOffset dy="1.77784"/>
<feGaussianBlur stdDeviation="0.888919"/>
<feColorMatrix type="matrix" values="0 0 0 0 0 0 0 0 0 0 0 0 0 0 0 0 0 0 0.25 0"/>
<feBlend mode="normal" in2="BackgroundImageFix" result="effect1_dropShadow"/>
<feBlend mode="normal" in="SourceGraphic" in2="effect1_dropShadow" result="shape"/>
</filter>
<filter id="filter1_d" x="0" y="0" width="107.6" height="90.9996" filterUnits="userSpaceOnUse" color-interpolation-filters="sRGB">
<feFlood flood-opacity="0" result="BackgroundImageFix"/>
<feColorMatrix in="SourceAlpha" type="matrix" values="0 0 0 0 0 0 0 0 0 0 0 0 0 0 0 0 0 0 127 0"/>
<feOffset dy="4"/>
<feGaussianBlur stdDeviation="2"/>
<feColorMatrix type="matrix" values="0 0 0 0 0 0 0 0 0 0 0 0 0 0 0 0 0 0 0.25 0"/>
<feBlend mode="normal" in2="BackgroundImageFix" result="effect1_dropShadow"/>
<feBlend mode="normal" in="SourceGraphic" in2="effect1_dropShadow" result="shape"/>
</filter>
</defs>
</svg>
